<svg width="209" height="71" viewBox="0 0 209 71" fill="none" xmlns="http://www.w3.org/2000/svg">
    <path fill-rule="evenodd" clip-rule="evenodd" d="M11.1392 46.9403L8.60825 48.2944C7.28355 49.0031 5.98915 50.3647 5.01244 52.1955C4.04225 54.014 3.50761 56.0731 3.50761 57.9223C3.50761 63.1533 7.83643 67.4878 13.2457 67.4878H77.4896C82.8989 67.4878 87.2277 63.1533 87.2277 57.9223C87.2277 56.0732 86.693 54.014 85.7228 52.1955C84.746 50.3647 83.4516 49.0031 82.127 48.2944L79.5964 46.9403L80.6255 44.2607C81.1497 42.8958 81.4387 41.4192 81.4387 39.8723C81.4387 35.7033 79.9759 33.0671 78.0182 31.2929C75.9576 29.4255 73.1039 28.3032 70.121 27.7549C70.0923 27.7496 70.0059 27.7425 69.8631 27.7903L48.7295 34.8607L48.6982 34.8705C47.0236 35.3934 45.2274 35.3807 43.5608 34.8344L43.5516 34.8314L22.2051 27.6923C22.1333 27.6683 22.0941 27.6633 22.0844 27.6624C16.7383 27.9054 10.1709 31.6641 9.29751 40.0247C9.31582 41.5164 9.60272 42.9408 10.1097 44.2604L11.1392 46.9403ZM6.04531 39.8723C7.04124 29.4245 15.3368 24.709 21.9478 24.4132C22.3854 24.3936 22.8206 24.4692 23.2361 24.6081L44.5733 31.7441C45.597 32.0796 46.7006 32.0875 47.7292 31.7662L68.8318 24.7062C69.4369 24.5038 70.0812 24.4411 70.7087 24.5564C77.3805 25.7829 84.69 29.7622 84.69 39.8723C84.69 41.8286 84.3238 43.6999 83.6606 45.4268C87.7177 47.5976 90.4789 53.0578 90.4789 57.9223C90.4789 64.9907 84.6528 70.7398 77.4896 70.7398H13.2457C6.08251 70.7398 0.256348 64.9907 0.256348 57.9223C0.256348 53.0578 3.01736 47.5976 7.07474 45.4268C6.41132 43.6999 6.04531 41.8286 6.04531 39.8723Z" fill="white"/>
    <path fill-rule="evenodd" clip-rule="evenodd" d="M76.2546 48.5853C76.2546 52.5141 73.0703 55.6991 69.1424 55.6991C65.2145 55.6991 62.0303 52.5141 62.0303 48.5853C62.0303 44.6564 65.2145 41.4714 69.1424 41.4714C73.0703 41.4714 76.2546 44.6564 76.2546 48.5853ZM73.4097 48.5853C73.4097 50.9426 71.4992 52.8535 69.1424 52.8535C66.7857 52.8535 64.8751 50.9426 64.8751 48.5853C64.8751 46.2279 66.7857 44.317 69.1424 44.317C71.4992 44.317 73.4097 46.2279 73.4097 48.5853Z" fill="white"/>
    <path d="M68.1264 48.7884C69.4732 48.7884 70.5649 47.6965 70.5649 46.3494C70.5649 45.0024 69.4732 43.9104 68.1264 43.9104C66.7797 43.9104 65.688 45.0024 65.688 46.3494C65.688 47.6965 66.7797 48.7884 68.1264 48.7884Z" fill="white"/>
    <path fill-rule="evenodd" clip-rule="evenodd" d="M46.9933 48.5853C46.9933 52.5141 43.8091 55.6991 39.8812 55.6991C35.9533 55.6991 32.769 52.5141 32.769 48.5853C32.769 44.6564 35.9533 41.4714 39.8812 41.4714C43.8091 41.4714 46.9933 44.6564 46.9933 48.5853ZM44.1485 48.5853C44.1485 50.9426 42.2379 52.8535 39.8812 52.8535C37.5244 52.8535 35.6139 50.9426 35.6139 48.5853C35.6139 46.2279 37.5244 44.317 39.8812 44.317C42.2379 44.317 44.1485 46.2279 44.1485 48.5853Z" fill="white"/>
    <path d="M38.8652 48.7884C40.2119 48.7884 41.3037 47.6965 41.3037 46.3494C41.3037 45.0024 40.2119 43.9104 38.8652 43.9104C37.5185 43.9104 36.4268 45.0024 36.4268 46.3494C36.4268 47.6965 37.5185 48.7884 38.8652 48.7884Z" fill="white"/>
    <path fill-rule="evenodd" clip-rule="evenodd" d="M45.605 4.11951C45.8019 4.05807 46.0123 4.05759 46.2094 4.11814L77.6735 13.7833C78.6522 14.0839 78.6565 15.4899 77.6797 15.7967L46.2809 25.6608C46.0767 25.7249 45.858 25.7234 45.6547 25.6563L15.1972 15.6134C14.234 15.2958 14.2448 13.9079 15.2127 13.6057L45.605 4.11951ZM14.2442 10.5014L44.6365 1.01512C45.4592 0.758327 46.34 0.756313 47.1639 1.00941L78.628 10.6746C82.6601 11.9131 82.6757 17.6359 78.654 18.8993L47.2551 28.7634C46.4016 29.0315 45.4862 29.025 44.6368 28.7449L14.1792 18.7019C10.2162 17.3951 10.255 11.7465 14.2442 10.5014Z" fill="white"/>
    <path d="M50.1721 59.9573L50.1721 59.9573C51.2119 60.8815 52.6871 61.8983 55.0477 61.8983C57.1536 61.8983 58.6289 60.813 59.664 59.8928L59.664 59.8928C60.2151 59.4028 60.248 58.5749 59.7366 58.0461C59.2272 57.5193 58.3715 57.4893 57.8229 57.9763L57.8223 57.9756L57.8135 57.9859C57.1936 58.7045 56.1286 59.06 55.0152 59.0611C53.9028 59.0623 52.7658 58.7093 52.0132 58.0408C51.4648 57.5537 50.6089 57.584 50.0995 58.1106C49.5879 58.6396 49.621 59.4673 50.1721 59.9573Z" fill="white" stroke="white" stroke-width="0.203204"/>
    <path d="M193.906 39.4209C194.005 39.534 194.107 39.6442 194.213 39.7514L194.218 39.756C194.97 40.4946 195.863 41.0718 196.893 41.4895C197.931 41.9105 199.072 42.1177 200.309 42.1177C201.567 42.1177 202.719 41.9108 203.758 41.4895C204.788 41.0716 205.677 40.4938 206.419 39.7537C206.589 39.5839 206.75 39.4067 206.902 39.2222L204.274 37.6846C204.265 37.6948 204.256 37.7049 204.247 37.715C203.787 38.2115 203.224 38.6048 202.554 38.8933L202.551 38.8942C201.902 39.178 201.157 39.3245 200.309 39.3245C199.462 39.3245 198.711 39.1782 198.049 38.8938C197.463 38.6376 196.962 38.2986 196.543 37.8779L193.906 39.4209Z" fill="white"/>
    <path d="M193.3 45.3809H196.097V57.2853L204.489 45.3809H207.287V62.1729H204.489V50.3061L196.125 62.1712L193.3 62.1729V45.3809Z" fill="white"/>
    <path d="M175.175 45.3809H177.973V57.2852L186.365 45.3809H189.162V62.1728H186.365V50.306L178.001 62.1712L175.175 62.1728V45.3809Z" fill="white"/>
    <path d="M157.602 45.3809H160.399V51.9516L168.791 51.9516V45.3809H171.589V51.9516V54.872V62.1728H168.791V54.872L160.399 54.872V62.1728H157.602V54.872L157.602 51.9516L157.602 45.3809Z" fill="white"/>
    <path fill-rule="evenodd" clip-rule="evenodd" d="M151.211 46.1227H153.997V62.1899H151.211V60.3539C151.102 60.4489 150.991 60.5407 150.876 60.6292C150.075 61.2486 149.157 61.6904 148.127 61.9577C147.09 62.2272 145.976 62.2731 144.79 62.1035C143.623 61.9367 142.577 61.5815 141.657 61.0323C140.743 60.4875 139.981 59.8059 139.374 58.9865L139.37 58.9814C138.775 58.1502 138.36 57.2011 138.124 56.1393L138.124 56.1354C137.898 55.0713 137.875 53.9291 138.048 52.7128C138.217 51.5272 138.557 50.4437 139.071 49.4668L139.072 49.4646C139.599 48.4789 140.264 47.6657 141.07 47.0326C141.884 46.3931 142.809 45.9403 143.839 45.6725C144.879 45.392 145.984 45.3388 147.151 45.5056C148.337 45.6753 149.394 46.0374 150.314 46.5984C150.632 46.7882 150.931 46.9959 151.211 47.2215V46.1227ZM150.242 50.3578C150.606 50.9252 150.85 51.5628 150.974 52.2752L150.975 52.2825C151.11 52.9865 151.122 53.7465 151.005 54.5658C150.889 55.385 150.664 56.1175 150.337 56.7675L150.335 56.7708C150.02 57.4081 149.612 57.9341 149.11 58.3545C148.608 58.7752 148.023 59.0817 147.351 59.2717L147.349 59.2723C146.697 59.4605 145.975 59.5025 145.176 59.3883C144.378 59.2741 143.69 59.0306 143.105 58.6649C142.524 58.2964 142.059 57.8409 141.705 57.2989C141.349 56.7551 141.102 56.1336 140.967 55.4293C140.844 54.7141 140.838 53.9481 140.955 53.1285C141.071 52.308 141.29 51.5797 141.606 50.939C141.935 50.2879 142.349 49.7422 142.848 49.297C143.344 48.8555 143.919 48.534 144.579 48.3335C145.243 48.1367 145.97 48.0908 146.767 48.2047C147.564 48.3187 148.243 48.566 148.814 48.9386L148.816 48.9398C149.406 49.3198 149.879 49.7924 150.242 50.3578Z" fill="white"/>
    <path d="M120.627 45.3809H123.424V51.9516L131.816 51.9516V45.3809H134.614V51.9516V54.872V62.1728H131.816V54.872L123.424 54.872V62.1728H120.627V54.872L120.627 51.9516L120.627 45.3809Z" fill="white"/>
    <path d="M109.322 52.2727C110.719 52.2727 111.672 52.0257 112.254 51.6023C112.907 51.1245 113.132 50.7001 113.132 50.3391C113.132 49.7291 112.81 49.2087 112.009 48.7804L112.007 48.7794C111.208 48.3468 110.068 48.1115 108.551 48.1115C107.308 48.1115 105.344 48.3651 104.582 48.7794L104.199 46.2416C105.378 45.6603 106.836 45.3809 108.551 45.3809C109.639 45.3809 110.64 45.4924 111.552 45.7192C112.469 45.9338 113.275 46.2471 113.964 46.6648C114.669 47.0755 115.229 47.5992 115.629 48.2385C116.032 48.8728 116.234 49.5764 116.234 50.3391C116.234 51.1866 115.931 51.9735 115.355 52.6907C115.017 53.1133 114.581 53.4393 114.06 53.6762C114.562 53.9181 115.004 54.2387 115.381 54.6403C116.067 55.3483 116.431 56.1611 116.431 57.0676C116.431 57.8768 116.211 58.6167 115.77 59.2756L115.768 59.2786C115.335 59.9134 114.746 60.4436 114.012 60.8733C113.289 61.3024 112.444 61.6211 111.481 61.8356C110.517 62.0614 109.474 62.1728 108.354 62.1728C106.566 62.1728 105.053 61.8985 103.843 61.3306L104.582 58.7343C105.407 59.115 107.05 59.4259 108.354 59.4259C109.923 59.4259 111.154 59.1859 112.071 58.7343L112.072 58.7335C112.982 58.2903 113.345 57.7318 113.345 57.0676C113.345 56.8716 113.281 56.657 113.121 56.4176L113.116 56.4103L113.111 56.4027C112.966 56.1654 112.741 55.9426 112.413 55.7412L112.406 55.7365C112.08 55.5269 111.665 55.3518 111.151 55.2185L111.143 55.2165C110.643 55.0769 110.038 55.0033 109.322 55.0033H106.344V52.2727H109.322Z" fill="white"/>
    <path fill-rule="evenodd" clip-rule="evenodd" d="M203.896 34.9676C204.924 34.5567 205.811 33.9884 206.551 33.2605C207.303 32.5203 207.874 31.6366 208.265 30.6149C208.667 29.5914 208.865 28.4613 208.865 27.2303C208.865 26.0304 208.667 24.9075 208.266 23.8655C207.877 22.8128 207.306 21.9117 206.553 21.1696C205.814 20.4198 204.927 19.8399 203.898 19.4284C202.861 19.0026 201.712 18.7935 200.457 18.7935C199.222 18.7935 198.084 19.0029 197.048 19.4284C196.019 19.8401 195.127 20.4202 194.377 21.1696C193.634 21.9117 193.064 22.8124 192.664 23.8643L192.663 23.8666C192.274 24.9083 192.081 26.0308 192.081 27.2303C192.081 28.4607 192.273 29.5901 192.664 30.6131L192.666 30.6169C193.067 31.6363 193.637 32.5186 194.377 33.2583L194.381 33.2628C195.131 33.9892 196.023 34.5569 197.05 34.9676C198.085 35.3816 199.223 35.5854 200.457 35.5854C201.711 35.5854 202.86 35.3819 203.896 34.9676ZM205.42 24.9635C205.187 24.2747 204.839 23.6771 204.378 23.1661C203.919 22.657 203.358 22.2555 202.69 21.9624L202.688 21.9614C202.041 21.6729 201.3 21.5241 200.457 21.5241C199.614 21.5241 198.867 21.6728 198.208 21.9619C197.552 22.2544 197.003 22.6547 196.555 23.1627C196.103 23.675 195.753 24.2748 195.509 24.967C195.275 25.6471 195.156 26.4002 195.156 27.2303C195.156 28.0595 195.275 28.8182 195.509 29.5098C195.753 30.189 196.1 30.7702 196.549 31.259C196.997 31.7461 197.546 32.1318 198.203 32.4149C198.863 32.6946 199.612 32.8385 200.457 32.8385C201.302 32.8385 202.045 32.6944 202.693 32.4153L202.695 32.4144C203.364 32.1307 203.925 31.7439 204.384 31.2556C204.842 30.7676 205.188 30.1881 205.421 29.5116L205.422 29.5082C205.666 28.8171 205.79 28.059 205.79 27.2303C205.79 26.4014 205.666 25.6495 205.422 24.9705L205.42 24.9635Z" fill="white"/>
    <path d="M175.875 18.7935H178.737V26.509L186.97 18.909L191.26 18.9111L182.782 26.7222L191.26 35.5758L186.965 35.5754L180.632 28.7037L178.737 30.4497V35.5854H175.875V18.7935Z" fill="white"/>
    <path fill-rule="evenodd" clip-rule="evenodd" d="M168.87 19.505H171.657V35.5723H168.87V33.7362C168.762 33.8313 168.65 33.923 168.536 34.0115C167.734 34.6309 166.816 35.0728 165.787 35.34C164.749 35.6095 163.635 35.6554 162.449 35.4858C161.283 35.319 160.237 34.9638 159.316 34.4146C158.403 33.8698 157.64 33.1882 157.034 32.3689L157.03 32.3637C156.435 31.5326 156.02 30.5834 155.784 29.5216L155.783 29.5177C155.558 28.4537 155.535 27.3114 155.708 26.0951C155.876 24.9095 156.216 23.8261 156.731 22.8491L156.732 22.8469C157.258 21.8612 157.924 21.048 158.73 20.4149C159.544 19.7755 160.468 19.3227 161.499 19.0548C162.538 18.7743 163.643 18.7211 164.81 18.888C165.997 19.0576 167.053 19.4197 167.974 19.9807C168.292 20.1706 168.591 20.3782 168.87 20.6038V19.505ZM167.902 23.7401C168.266 24.3075 168.51 24.9451 168.634 25.6575L168.635 25.6648C168.769 26.3688 168.781 27.1288 168.665 27.9481C168.548 28.7673 168.324 29.4998 167.996 30.1499L167.995 30.1531C167.68 30.7904 167.272 31.3164 166.77 31.7368C166.268 32.1575 165.683 32.464 165.011 32.654L165.009 32.6546C164.357 32.8428 163.634 32.8849 162.836 32.7706C162.037 32.6564 161.35 32.413 160.765 32.0473C160.184 31.6787 159.719 31.2232 159.364 30.6812C159.009 30.1374 158.762 29.5159 158.627 28.8116C158.503 28.0965 158.498 27.3304 158.614 26.5108C158.731 25.6903 158.949 24.962 159.266 24.3213C159.594 23.6702 160.009 23.1245 160.508 22.6793C161.003 22.2378 161.579 21.9163 162.239 21.7158C162.902 21.519 163.63 21.4731 164.426 21.587C165.223 21.701 165.903 21.9483 166.474 22.3209L166.476 22.3221C167.065 22.7021 167.539 23.1747 167.902 23.7401Z" fill="white"/>
    <path fill-rule="evenodd" clip-rule="evenodd" d="M153.496 35.2016V18.7935H147.412C143.869 18.7935 140.997 21.6626 140.997 25.2018V31.3198C140.997 31.8891 140.863 32.2366 140.67 32.4419C140.482 32.642 140.171 32.7784 139.654 32.7784C139.348 32.7784 139.122 32.7571 138.964 32.7224C138.821 32.6884 138.695 32.6347 138.582 32.5626L138.08 32.2397L137.411 34.9354L137.669 35.1006C138.208 35.446 138.995 35.5854 139.955 35.5854C140.506 35.5854 141.037 35.4875 141.543 35.2908C142.05 35.1048 142.499 34.8308 142.886 34.4689C143.279 34.102 143.584 33.651 143.806 33.1241C144.044 32.5838 144.158 31.9796 144.158 31.3198V25.8727C144.158 23.5132 146.072 21.6005 148.434 21.6005H150.335V35.2016H153.496Z" fill="white"/>
    <path fill-rule="evenodd" clip-rule="evenodd" d="M131.149 34.9752C132.155 34.5695 133.023 34.0084 133.747 33.2897C134.483 32.5588 135.042 31.6862 135.425 30.6775C135.819 29.6669 136.012 28.5511 136.012 27.3356C136.012 26.1508 135.818 25.0421 135.426 24.0133C135.045 22.9739 134.487 22.0842 133.749 21.3515C133.026 20.6112 132.158 20.0386 131.151 19.6322C130.136 19.2118 129.011 19.0053 127.783 19.0053C126.574 19.0053 125.46 19.2121 124.446 19.6322C123.729 19.9218 123.022 20.3488 122.442 20.8075C122.085 19.0053 123.87 14.6801 126.727 14.6801C128.513 14.6801 129.793 16.3394 132.084 15.7614C133.512 15.401 134.941 13.9592 135.298 13.5988L133.155 11.7966C132.798 12.2772 131.727 13.1663 130.298 12.8779C128.513 12.5175 128.073 11.4571 125.299 12.1571C122.442 12.8779 119.228 16.8427 119.228 21.8888C119.228 26.9348 119.585 28.0161 119.585 28.0161C119.646 28.9522 119.851 29.8705 120.156 30.6757L120.157 30.6794C120.55 31.6859 121.108 32.5571 121.832 33.2875L121.837 33.2919C122.57 34.0092 123.443 34.5697 124.448 34.9752C125.462 35.384 126.575 35.5852 127.783 35.5852C129.011 35.5852 130.135 35.3843 131.149 34.9752ZM132.64 25.0974C132.412 24.4173 132.072 23.8273 131.621 23.3228C131.171 22.82 130.622 22.4236 129.969 22.1342L129.967 22.1333C129.334 21.8484 128.608 21.7014 127.783 21.7014C126.958 21.7014 126.226 21.8482 125.582 22.1337C124.94 22.4225 124.403 22.8178 123.964 23.3194C123.521 23.8252 123.179 24.4175 122.94 25.1009C122.712 25.7724 122.595 26.516 122.595 27.3356C122.595 28.1543 122.711 28.9035 122.94 29.5864C123.179 30.2569 123.519 30.8308 123.958 31.3134C124.396 31.7944 124.934 32.1753 125.577 32.4547C126.223 32.7309 126.956 32.873 127.783 32.873C128.61 32.873 129.337 32.7307 129.972 32.4552L129.974 32.4543C130.628 32.1742 131.177 31.7922 131.626 31.3101C132.075 30.8282 132.413 30.2561 132.641 29.5881L132.642 29.5847C132.881 28.9024 133.002 28.1539 133.002 27.3356C133.002 26.5172 132.881 25.7748 132.643 25.1044L132.64 25.0974Z" fill="white"/>
    <path fill-rule="evenodd" clip-rule="evenodd" d="M112.861 34.9676C113.889 34.5567 114.775 33.9884 115.515 33.2605C116.267 32.5203 116.839 31.6366 117.229 30.6149C117.632 29.5914 117.83 28.4613 117.83 27.2303C117.83 26.0304 117.631 24.9075 117.231 23.8655C116.841 22.8128 116.271 21.9117 115.517 21.1696C114.778 20.4198 113.891 19.8399 112.863 19.4284C111.826 19.0026 110.676 18.7935 109.421 18.7935C108.186 18.7935 107.048 19.0029 106.012 19.4284C104.983 19.8401 104.091 20.4202 103.341 21.1696C102.599 21.9117 102.029 22.8124 101.628 23.8643L101.627 23.8666C101.238 24.9083 101.045 26.0308 101.045 27.2303C101.045 28.4607 101.237 29.5901 101.628 30.6131L101.63 30.6169C102.031 31.6363 102.601 32.5186 103.341 33.2583L103.346 33.2628C104.096 33.9892 104.987 34.5569 106.014 34.9676C107.05 35.3816 108.187 35.5854 109.421 35.5854C110.676 35.5854 111.824 35.3819 112.861 34.9676ZM114.384 24.9635C114.151 24.2747 113.804 23.6771 113.342 23.1661C112.883 22.657 112.322 22.2555 111.655 21.9624L111.653 21.9614C111.006 21.6729 110.265 21.5241 109.421 21.5241C108.578 21.5241 107.831 21.6728 107.172 21.9619C106.517 22.2544 105.968 22.6547 105.519 23.1627C105.067 23.675 104.718 24.2748 104.473 24.967C104.24 25.6471 104.121 26.4002 104.121 27.2303C104.121 28.0595 104.24 28.8182 104.473 29.5098C104.717 30.189 105.064 30.7702 105.514 31.259C105.961 31.7461 106.51 32.1318 107.167 32.4149C107.827 32.6946 108.576 32.8385 109.421 32.8385C110.266 32.8385 111.009 32.6944 111.658 32.4153L111.66 32.4144C112.329 32.1307 112.889 31.7439 113.348 31.2556C113.807 30.7676 114.153 30.1881 114.385 29.5116L114.386 29.5082C114.63 28.8171 114.754 28.059 114.754 27.2303C114.754 26.4014 114.63 25.6495 114.387 24.9705L114.384 24.9635Z" fill="white"/>
</svg>